<svg xmlns="http://www.w3.org/2000/svg" viewBox="0 0 216.13 81.91"><defs><style>.cls-1{fill:#fcde65;}.cls-2{fill:#fedd33;}</style></defs><g id="Capa_2" data-name="Capa 2"><g id="Capa_1-2" data-name="Capa 1"><polygon class="cls-1" points="107.59 20.73 51.59 74.76 65.18 74.77 107.59 33.58 150.65 74.76 164.77 74.76 107.59 20.73"/><polygon class="cls-2" points="107.59 0 30.22 74.77 44.83 74.77 107.62 14.76 164.27 68.62 178.88 68.62 107.59 0"/><polygon class="cls-2" points="57.61 78.11 18.07 78.11 18.07 76.42 59.78 76.42 57.61 78.11"/><polygon class="cls-2" points="24.82 81.63 0 81.63 0 79.94 26.19 79.94 24.82 81.63"/><polygon class="cls-2" points="202.94 78.2 163.25 78.22 161.09 76.4 202.94 76.4 202.94 78.2"/><polygon class="cls-2" points="216.13 81.89 191.22 81.91 189.86 80.08 216.13 80.08 216.13 81.89"/></g></g></svg>