<svg xmlns="http://www.w3.org/2000/svg" viewBox="0 0 216.13 113.13"><defs><style>.cls-1{fill:#fcde65;}.cls-2{fill:#fedd33;}.cls-3{fill:#1d1d1b;}</style></defs><g id="Capa_2" data-name="Capa 2"><g id="Capa_1-2" data-name="Capa 1"><polygon class="cls-1" points="107.59 20.73 51.59 74.76 65.18 74.77 107.59 33.58 150.65 74.76 164.77 74.76 107.59 20.73"/><polygon class="cls-2" points="107.59 0 30.22 74.77 44.83 74.77 107.62 14.76 164.27 68.62 178.88 68.62 107.59 0"/><path class="cls-3" d="M50.82,99.81c-3.3,0-4.37-1.56-4.37-3.56V82.92c0-2,.77-3.6,4.37-3.6h2.76c3.57,0,4.33,1.6,4.33,3.6v6.36H53.38v-5.7c0-1.1-.46-1.36-1.2-1.46-.73.1-1.23.36-1.23,1.46v12c0,1.13.5,1.4,1.23,1.46s1.2-.33,1.2-1.46l0-2.9H58l0,3.6c0,2-1.06,3.56-4.33,3.56Z"/><path class="cls-3" d="M64.61,99.81c-3.3,0-4.36-1.6-4.36-3.56V82.85c0-2,.76-3.6,4.36-3.6h2.77c3.6,0,4.36,1.6,4.36,3.6v13.4c0,2-1.06,3.56-4.36,3.56Zm2.63-4.26v-12c0-1.13-.5-1.4-1.23-1.47s-1.23.34-1.23,1.47v12c0,1.13.5,1.36,1.23,1.46C66.74,96.91,67.24,96.68,67.24,95.55Z"/><path class="cls-3" d="M81.74,99.81l-3-10.63.1,10.63h-4.5V79.25h4.36L81.74,90l-.5-10.7h4.5V99.81Z"/><path class="cls-3" d="M92.47,99.81c-3.63,0-4.37-1.6-4.37-3.56v-4.4h4.5v3.7c0,1.13.54,1.36,1.27,1.46.7-.1,1.2-.33,1.2-1.46v-3a1.17,1.17,0,0,0-.73-1l-4.84-1.9a2,2,0,0,1-1.4-1.77v-5c0-2,.74-3.6,4.37-3.6h2.76c3.6,0,4.37,1.6,4.37,3.6v4.37H95.07V83.55c0-1.13-.5-1.4-1.2-1.47s-1.27.34-1.27,1.47v3a1.06,1.06,0,0,0,.77,1l4.83,1.86a2.07,2.07,0,0,1,1.4,1.8v5.07c0,2-.77,3.56-4.37,3.56Z"/><path class="cls-3" d="M101.9,99.81V79.25h9.43v3h-4.9v7h4.3v2.9h-4.3v4.73h4.9v2.93Z"/><path class="cls-3" d="M119.86,99.81V94.08c0-1.1-.9-1.1-2-1.1h-.44v6.83h-4.53V79.25h7.57c2.23,0,4,1.3,4,3.6v5.83a2.88,2.88,0,0,1-2,2.8,2.62,2.62,0,0,1,2,2.67v5.66Zm0-11V83.22c0-1.14-.9-1.14-2-1.14h-.44V90h.44C119,90,119.86,90,119.86,88.85Z"/><path class="cls-3" d="M130,99.81l-4.73-20.56h4.6l2.2,12.9,2.2-12.9h4.6l-4.67,20.56Z"/><path class="cls-3" d="M139.65,99.81V79.25h4.5V99.81Z"/><path class="cls-3" d="M151.28,99.81c-3.3,0-4.36-1.56-4.36-3.56V82.92c0-2,.76-3.6,4.36-3.6h2.77c3.57,0,4.33,1.6,4.33,3.6v6.36h-4.53v-5.7c0-1.1-.47-1.36-1.2-1.46-.73.1-1.23.36-1.23,1.46v12c0,1.13.5,1.4,1.23,1.46s1.2-.33,1.2-1.46l0-2.9h4.54l0,3.6c0,2-1.06,3.56-4.33,3.56Z"/><path class="cls-3" d="M160.68,99.81V79.25h9.43v3h-4.9v7h4.3v2.9h-4.3v4.73h4.9v2.93Z"/><path class="cls-3" d="M28.39,111.84a2,2,0,0,1,.26-.78,2,2,0,0,1,.49-.61,7.68,7.68,0,0,0,1.59.82,4.88,4.88,0,0,0,1.74.33,2.36,2.36,0,0,0,1.54-.45,1.41,1.41,0,0,0,.55-1.16,1.66,1.66,0,0,0-.38-1.06,2.93,2.93,0,0,0-1.12-.78l-2-.88a4.56,4.56,0,0,1-1.65-1.16,2.59,2.59,0,0,1-.62-1.8,3.08,3.08,0,0,1,.47-1.68,3.38,3.38,0,0,1,1.32-1.19,4.06,4.06,0,0,1,2-.44,6.74,6.74,0,0,1,1.94.27,8.33,8.33,0,0,1,1.56.61,2.23,2.23,0,0,1-.19.78,2,2,0,0,1-.45.64,7.26,7.26,0,0,0-1.42-.57,4.74,4.74,0,0,0-1.41-.24,2.15,2.15,0,0,0-1.45.46,1.48,1.48,0,0,0-.53,1.15A1.19,1.19,0,0,0,31,105a3.37,3.37,0,0,0,1,.63l2,.85a5.16,5.16,0,0,1,1.26.76,3.34,3.34,0,0,1,.89,1.06,2.93,2.93,0,0,1,.32,1.38,3.43,3.43,0,0,1-.45,1.75,3.09,3.09,0,0,1-1.34,1.23,5,5,0,0,1-2.26.45,7.18,7.18,0,0,1-4-1.29Z"/><path class="cls-3" d="M44.7,108.68a6.14,6.14,0,0,1-.41,2.31,3.56,3.56,0,0,1-1.21,1.57,3.27,3.27,0,0,1-2,.57,3.31,3.31,0,0,1-2-.58A3.41,3.41,0,0,1,38,111a6.78,6.78,0,0,1,0-4.59,3.47,3.47,0,0,1,1.2-1.57,3.27,3.27,0,0,1,2-.57,3.19,3.19,0,0,1,3.17,2.14A6.05,6.05,0,0,1,44.7,108.68Zm-5.38,0a7.2,7.2,0,0,0,.15,1.5,2.44,2.44,0,0,0,.56,1.15,1.6,1.6,0,0,0,2.2,0,2.52,2.52,0,0,0,.55-1.15,7.2,7.2,0,0,0,.15-1.5,7.36,7.36,0,0,0-.15-1.51,2.58,2.58,0,0,0-.55-1.15,1.37,1.37,0,0,0-1.1-.45A1.38,1.38,0,0,0,40,106a2.48,2.48,0,0,0-.56,1.15A7.36,7.36,0,0,0,39.32,108.68Z"/><path class="cls-3" d="M49.37,111.58a1.62,1.62,0,0,1,.1.42,2.42,2.42,0,0,1,0,.47,1.28,1.28,0,0,1,0,.19.58.58,0,0,1,0,.19l-.67.09a6.41,6.41,0,0,1-.73,0,1.61,1.61,0,0,1-1.22-.44,1.88,1.88,0,0,1-.41-1.32V100.43l.11-.11h.64a.84.84,0,0,1,.73.27,1.59,1.59,0,0,1,.19.86v9.37a.84.84,0,0,0,.16.57.63.63,0,0,0,.49.19Z"/><path class="cls-3" d="M50.81,106.26a5.73,5.73,0,0,0-.06-.84,2.66,2.66,0,0,0-.2-.69,1.42,1.42,0,0,1,.47-.27,1.51,1.51,0,0,1,.59-.11.79.79,0,0,1,.7.28,1.39,1.39,0,0,1,.21.83v4.36a2.79,2.79,0,0,0,.21,1.25.85.85,0,0,0,.82.4,2.25,2.25,0,0,0,.9-.21,3.53,3.53,0,0,0,.91-.59,3,3,0,0,0,.7-.88v1.68a5,5,0,0,1-1.35,1.13,3.48,3.48,0,0,1-1.71.46,2,2,0,0,1-1.25-.38,2.11,2.11,0,0,1-.71-1,4.29,4.29,0,0,1-.23-1.43Zm6.52,4.25a3.9,3.9,0,0,0,.1.93,1.21,1.21,0,0,0,.36.68,1.51,1.51,0,0,1-.25.51,1.36,1.36,0,0,1-.39.4,1.64,1.64,0,0,1-1.17-.81,2.9,2.9,0,0,1-.36-1.46v-6.3l.4,0,.45,0,.46,0,.4,0Z"/><path class="cls-3" d="M64,107.72a3.51,3.51,0,0,0-.09-1,1.5,1.5,0,0,0-.44-.79,1.29,1.29,0,0,0-.92-.3,1.35,1.35,0,0,0-1.23.78,5,5,0,0,0-.44,2.36,4,4,0,0,0,.5,2.24,1.57,1.57,0,0,0,1.37.71,2.28,2.28,0,0,0,1.08-.27,6,6,0,0,0,.94-.59,1.57,1.57,0,0,1,.44.45,1.48,1.48,0,0,1,.28.6,4.62,4.62,0,0,1-1.33.91,4.05,4.05,0,0,1-1.66.35,3.09,3.09,0,0,1-1.53-.36,2.82,2.82,0,0,1-1-1,4.44,4.44,0,0,1-.61-1.4,7.09,7.09,0,0,1-.2-1.68,6.47,6.47,0,0,1,.29-2,4.1,4.1,0,0,1,.79-1.4,3.27,3.27,0,0,1,1.11-.8,3.61,3.61,0,0,1,2.59,0,2.69,2.69,0,0,1,.93.61,2.49,2.49,0,0,1,.56.83,2.31,2.31,0,0,1,.19.9,1.09,1.09,0,0,1-.21.71.78.78,0,0,1-.66.27A4,4,0,0,1,64,107.72Z"/><path class="cls-3" d="M69.27,112.9a2.18,2.18,0,0,1-.39,0,3.39,3.39,0,0,1-.45,0,3.46,3.46,0,0,1-.46,0,2.43,2.43,0,0,1-.4,0v-6.27a1.21,1.21,0,0,0-.15-.67.67.67,0,0,0-.56-.22h-.19a2.7,2.7,0,0,1-.08-.62c0-.1,0-.21,0-.31a1.91,1.91,0,0,1,.06-.33l.59-.06.46,0h.21a1.26,1.26,0,0,1,1,.41,1.65,1.65,0,0,1,.35,1.1Zm-2.21-10.72a2.85,2.85,0,0,1,0-.4,1.62,1.62,0,0,1,.11-.37,1.48,1.48,0,0,1,.41-.15,2.27,2.27,0,0,1,.5-.06,2.35,2.35,0,0,1,.51.06,1.2,1.2,0,0,1,.4.15,1.24,1.24,0,0,1,.11.37,2,2,0,0,1,0,.4,1.84,1.84,0,0,1,0,.39,1.34,1.34,0,0,1-.11.37,1.58,1.58,0,0,1-.39.15,2.52,2.52,0,0,1-.52.06,2.27,2.27,0,0,1-.5-.06,1.36,1.36,0,0,1-.41-.15,1.79,1.79,0,0,1-.11-.37A2.87,2.87,0,0,1,67.06,102.18Z"/><path class="cls-3" d="M78.15,108.68a6.15,6.15,0,0,1-.4,2.31,3.56,3.56,0,0,1-1.21,1.57,3.65,3.65,0,0,1-3.93,0A3.41,3.41,0,0,1,71.42,111a6.63,6.63,0,0,1,0-4.59,3.47,3.47,0,0,1,1.2-1.57,3.67,3.67,0,0,1,3.93,0,3.34,3.34,0,0,1,1.2,1.57A6.06,6.06,0,0,1,78.15,108.68Zm-5.38,0a7.19,7.19,0,0,0,.16,1.5,2.44,2.44,0,0,0,.56,1.15,1.6,1.6,0,0,0,2.2,0,2.52,2.52,0,0,0,.55-1.15,7.2,7.2,0,0,0,.15-1.5,7.36,7.36,0,0,0-.15-1.51,2.58,2.58,0,0,0-.55-1.15,1.37,1.37,0,0,0-1.1-.45,1.38,1.38,0,0,0-1.1.45,2.48,2.48,0,0,0-.56,1.15A7.36,7.36,0,0,0,72.77,108.68Z"/><path class="cls-3" d="M80.67,104.38a.8.8,0,0,1,.74.34,1.72,1.72,0,0,1,.21.92v7.26a2.06,2.06,0,0,1-.39,0,3.24,3.24,0,0,1-.45,0,3.39,3.39,0,0,1-.45,0,2.3,2.3,0,0,1-.4,0v-8.41l.1-.11Zm5.76,6.72a5.63,5.63,0,0,0,.06.84,2.06,2.06,0,0,0,.22.7,1.58,1.58,0,0,1-.48.27,1.72,1.72,0,0,1-.6.1.81.81,0,0,1-.7-.28,1.49,1.49,0,0,1-.2-.84v-4.35a2.76,2.76,0,0,0-.21-1.25.84.84,0,0,0-.82-.39,2.41,2.41,0,0,0-.9.2,3.58,3.58,0,0,0-.91.58,3.17,3.17,0,0,0-.7.89v-1.69a5.16,5.16,0,0,1,1.36-1.12,3.4,3.4,0,0,1,1.69-.45,2,2,0,0,1,1.25.37,2.16,2.16,0,0,1,.71,1,4.29,4.29,0,0,1,.23,1.43Z"/><path class="cls-3" d="M89.19,109.24V108h4v-.22a3.48,3.48,0,0,0-.17-1.1,1.67,1.67,0,0,0-.52-.8,1.45,1.45,0,0,0-1-.3,1.36,1.36,0,0,0-1.26.73,4.12,4.12,0,0,0-.42,2v.54a5.85,5.85,0,0,0,.16,1.45,2,2,0,0,0,.57,1,1.7,1.7,0,0,0,1.17.38A3.78,3.78,0,0,0,93,111.5a6.63,6.63,0,0,0,1.09-.47,1.55,1.55,0,0,1,.36.53,2,2,0,0,1,.18.6,4.43,4.43,0,0,1-1.41.7,5.38,5.38,0,0,1-1.69.27,3.4,3.4,0,0,1-1.64-.37,2.75,2.75,0,0,1-1-1,4.47,4.47,0,0,1-.55-1.42,7.48,7.48,0,0,1-.17-1.66,6.49,6.49,0,0,1,.38-2.28,3.51,3.51,0,0,1,1.16-1.59,3,3,0,0,1,1.9-.58,3.16,3.16,0,0,1,1.81.49,3,3,0,0,1,1.1,1.31,4.38,4.38,0,0,1,.37,1.84c0,.28,0,.51,0,.71s-.06.41-.1.65Z"/><path class="cls-3" d="M95.94,112.27a1.83,1.83,0,0,1,.18-.65,1.72,1.72,0,0,1,.38-.58,9.42,9.42,0,0,0,1.11.52,3.22,3.22,0,0,0,1.21.24,1.72,1.72,0,0,0,1.07-.3,1,1,0,0,0,.41-.77,1,1,0,0,0-.26-.67,2,2,0,0,0-.78-.5l-1-.36a5.76,5.76,0,0,1-1-.54,2.72,2.72,0,0,1-.76-.79,2.08,2.08,0,0,1-.28-1.11,2.4,2.4,0,0,1,.38-1.35,2.38,2.38,0,0,1,1-.87,3.57,3.57,0,0,1,1.49-.3,6.14,6.14,0,0,1,1.42.18,5.86,5.86,0,0,1,1.27.43,1.57,1.57,0,0,1,0,.47,2.41,2.41,0,0,1-.18.47,1.47,1.47,0,0,1-.27.36,7.64,7.64,0,0,0-1-.39,4.06,4.06,0,0,0-1.2-.18,1.28,1.28,0,0,0-.86.27.92.92,0,0,0-.33.73.79.79,0,0,0,.25.6,2.37,2.37,0,0,0,.77.44l1,.38a4.1,4.1,0,0,1,1.52,1,2.46,2.46,0,0,1-.31,3.48,3.81,3.81,0,0,1-2.35.68,4.94,4.94,0,0,1-1.61-.26A5.77,5.77,0,0,1,95.94,112.27Z"/><path class="cls-3" d="M106.35,110.61a2.83,2.83,0,0,1,.42-1.61,2.41,2.41,0,0,1,1.13-.93,4.09,4.09,0,0,1,1.61-.3c.31,0,.66,0,1,0a6.79,6.79,0,0,1,1.08.17v1.18a5.48,5.48,0,0,0-1-.14l-1,0a1.62,1.62,0,0,0-1.16.4,1.44,1.44,0,0,0-.42,1.09,1.4,1.4,0,0,0,.29.89,1,1,0,0,0,.83.36,2.35,2.35,0,0,0,1.27-.43,3.47,3.47,0,0,0,1.13-1.28l.27,1.34a8.6,8.6,0,0,1-.74.77,4,4,0,0,1-1,.7,2.77,2.77,0,0,1-1.3.3,2.32,2.32,0,0,1-1.36-.38,2.39,2.39,0,0,1-.81-1A2.93,2.93,0,0,1,106.35,110.61Zm6.89,1.51a1.66,1.66,0,0,1-.24.51,1.68,1.68,0,0,1-.4.4,1.83,1.83,0,0,1-.84-.4,1.77,1.77,0,0,1-.47-.7,2.76,2.76,0,0,1-.19-.86v-3.86a1.55,1.55,0,0,0-.36-1.15,1.33,1.33,0,0,0-1-.36,4.54,4.54,0,0,0-1.28.2q-.66.19-1.32.45a1.67,1.67,0,0,1-.33-.58,2.68,2.68,0,0,1-.16-.71,9,9,0,0,1,1-.39,9.67,9.67,0,0,1,1.21-.28,7,7,0,0,1,1.17-.11,3.08,3.08,0,0,1,1.43.31,2.11,2.11,0,0,1,.93.94,3.36,3.36,0,0,1,.34,1.62v3.5a3.63,3.63,0,0,0,.09.85A1.21,1.21,0,0,0,113.24,112.12Z"/><path class="cls-3" d="M117.5,112.27a1.83,1.83,0,0,1,.18-.65,1.72,1.72,0,0,1,.38-.58,8.73,8.73,0,0,0,1.11.52,3.22,3.22,0,0,0,1.21.24,1.72,1.72,0,0,0,1.07-.3,1,1,0,0,0,.41-.77,1,1,0,0,0-.27-.67,1.87,1.87,0,0,0-.77-.5l-1-.36a5.76,5.76,0,0,1-1-.54,2.72,2.72,0,0,1-.76-.79,2.08,2.08,0,0,1-.28-1.11,2.33,2.33,0,0,1,.38-1.35,2.41,2.41,0,0,1,1-.87,3.61,3.61,0,0,1,1.49-.3,6.15,6.15,0,0,1,1.43.18,6.06,6.06,0,0,1,1.27.43,2,2,0,0,1,0,.47,3.27,3.27,0,0,1-.18.47,1.47,1.47,0,0,1-.27.36,7.64,7.64,0,0,0-1-.39,4.06,4.06,0,0,0-1.2-.18,1.33,1.33,0,0,0-.87.27.94.94,0,0,0-.32.73.79.79,0,0,0,.25.6,2.3,2.3,0,0,0,.76.44l1,.38a4.1,4.1,0,0,1,1.52,1,2.29,2.29,0,0,1,.58,1.61,2.25,2.25,0,0,1-.89,1.87,3.81,3.81,0,0,1-2.35.68,4.9,4.9,0,0,1-1.61-.26A5.77,5.77,0,0,1,117.5,112.27Z"/><path class="cls-3" d="M125.18,106.26a5.73,5.73,0,0,0-.06-.84,2.66,2.66,0,0,0-.2-.69,1.42,1.42,0,0,1,.47-.27,1.51,1.51,0,0,1,.59-.11.79.79,0,0,1,.7.28,1.39,1.39,0,0,1,.21.83v4.36a2.79,2.79,0,0,0,.21,1.25.85.85,0,0,0,.82.4,2.25,2.25,0,0,0,.9-.21,3.37,3.37,0,0,0,.91-.59,3,3,0,0,0,.7-.88v1.68a5,5,0,0,1-1.35,1.13,3.48,3.48,0,0,1-1.71.46,2,2,0,0,1-1.25-.38,2.11,2.11,0,0,1-.71-1,4.29,4.29,0,0,1-.23-1.43Zm6.52,4.25a3.9,3.9,0,0,0,.1.93,1.21,1.21,0,0,0,.36.68,1.51,1.51,0,0,1-.25.51,1.36,1.36,0,0,1-.39.4,1.64,1.64,0,0,1-1.17-.81,2.9,2.9,0,0,1-.36-1.46v-6.3l.4,0,.45,0,.46,0,.4,0Z"/><path class="cls-3" d="M136.7,110.61a2.83,2.83,0,0,1,.42-1.61,2.41,2.41,0,0,1,1.13-.93,4.13,4.13,0,0,1,1.61-.3c.31,0,.66,0,1,0A7.11,7.11,0,0,1,142,108v1.18a5.76,5.76,0,0,0-1-.14l-1,0a1.62,1.62,0,0,0-1.16.4,1.44,1.44,0,0,0-.42,1.09,1.4,1.4,0,0,0,.29.89,1,1,0,0,0,.83.36,2.33,2.33,0,0,0,1.27-.43,3.39,3.39,0,0,0,1.13-1.28l.27,1.34a8.6,8.6,0,0,1-.74.77,4,4,0,0,1-1,.7,2.77,2.77,0,0,1-1.3.3,2.32,2.32,0,0,1-1.36-.38,2.39,2.39,0,0,1-.81-1A2.93,2.93,0,0,1,136.7,110.61Zm6.89,1.51a1.66,1.66,0,0,1-.24.51,1.86,1.86,0,0,1-.39.4,1.82,1.82,0,0,1-.85-.4,1.77,1.77,0,0,1-.47-.7,3.07,3.07,0,0,1-.19-.86v-3.86a1.6,1.6,0,0,0-.35-1.15,1.35,1.35,0,0,0-1-.36,4.61,4.61,0,0,0-1.29.2q-.66.19-1.32.45a1.67,1.67,0,0,1-.33-.58,2.32,2.32,0,0,1-.15-.71,8.16,8.16,0,0,1,1-.39,10.1,10.1,0,0,1,1.21-.28,7,7,0,0,1,1.17-.11,3.08,3.08,0,0,1,1.43.31,2.11,2.11,0,0,1,.93.94,3.36,3.36,0,0,1,.34,1.62v3.5a3.63,3.63,0,0,0,.09.85A1.21,1.21,0,0,0,143.59,112.12Z"/><path class="cls-3" d="M148.31,111.58a2.16,2.16,0,0,1,.1.42,2.42,2.42,0,0,1,0,.47,1.28,1.28,0,0,1,0,.19.58.58,0,0,1,0,.19l-.67.09a6.58,6.58,0,0,1-.74,0,1.59,1.59,0,0,1-1.21-.44,1.83,1.83,0,0,1-.41-1.32V100.43l.1-.11h.65a.81.81,0,0,1,.72.27,1.49,1.49,0,0,1,.2.86v9.37a.84.84,0,0,0,.16.57.62.62,0,0,0,.49.19Z"/><path class="cls-3" d="M154.15,107.72a3.51,3.51,0,0,0-.09-1,1.5,1.5,0,0,0-.44-.79,1.29,1.29,0,0,0-.92-.3,1.36,1.36,0,0,0-1.23.78,5,5,0,0,0-.43,2.36,4,4,0,0,0,.49,2.24,1.58,1.58,0,0,0,1.37.71,2.28,2.28,0,0,0,1.08-.27,6,6,0,0,0,.94-.59,1.45,1.45,0,0,1,.44.45,1.48,1.48,0,0,1,.28.6,4.62,4.62,0,0,1-1.33.91,4,4,0,0,1-1.66.35,3.09,3.09,0,0,1-1.53-.36,2.9,2.9,0,0,1-1-1,4.68,4.68,0,0,1-.61-1.4,7.09,7.09,0,0,1-.19-1.68,6.19,6.19,0,0,1,.29-2,3.93,3.93,0,0,1,.78-1.4,3.27,3.27,0,0,1,1.11-.8,3.61,3.61,0,0,1,2.59,0,2.73,2.73,0,0,1,.94.61,2.61,2.61,0,0,1,.55.83,2.31,2.31,0,0,1,.19.9,1.09,1.09,0,0,1-.21.71.76.76,0,0,1-.66.27A4,4,0,0,1,154.15,107.72Z"/><path class="cls-3" d="M156.81,110.61a2.83,2.83,0,0,1,.42-1.61,2.51,2.51,0,0,1,1.13-.93,4.18,4.18,0,0,1,1.62-.3c.31,0,.66,0,1,0a7.11,7.11,0,0,1,1.09.17v1.18a5.48,5.48,0,0,0-1-.14l-1,0a1.64,1.64,0,0,0-1.17.4,1.43,1.43,0,0,0-.41,1.09,1.39,1.39,0,0,0,.28.89,1,1,0,0,0,.83.36,2.33,2.33,0,0,0,1.27-.43A3.49,3.49,0,0,0,162,110l.26,1.34a8.38,8.38,0,0,1-.73.77,4.1,4.1,0,0,1-1,.7,2.74,2.74,0,0,1-1.3.3,2.35,2.35,0,0,1-1.36-.38,2.29,2.29,0,0,1-.8-1A2.79,2.79,0,0,1,156.81,110.61Zm6.9,1.51a1.78,1.78,0,0,1-.64.91,1.74,1.74,0,0,1-.84-.4,1.69,1.69,0,0,1-.48-.7,3.47,3.47,0,0,1-.19-.86v-3.86a1.55,1.55,0,0,0-.35-1.15,1.35,1.35,0,0,0-1-.36,4.54,4.54,0,0,0-1.28.2q-.66.19-1.32.45a1.54,1.54,0,0,1-.34-.58,2.32,2.32,0,0,1-.15-.71,9,9,0,0,1,1-.39,9.52,9.52,0,0,1,1.2-.28,7,7,0,0,1,1.18-.11,3,3,0,0,1,1.42.31,2.19,2.19,0,0,1,.94.94,3.48,3.48,0,0,1,.33,1.62v3.5a3.63,3.63,0,0,0,.09.85A1.22,1.22,0,0,0,163.71,112.12Z"/><path class="cls-3" d="M166.26,104.38a.8.8,0,0,1,.75.34,1.72,1.72,0,0,1,.21.92v7.26a2.3,2.3,0,0,1-.4,0,3.24,3.24,0,0,1-.45,0,3.39,3.39,0,0,1-.45,0,2.3,2.3,0,0,1-.4,0v-8.41l.1-.11ZM172,111.1a5.63,5.63,0,0,0,.06.84,2.06,2.06,0,0,0,.22.7,1.58,1.58,0,0,1-.48.27,1.72,1.72,0,0,1-.6.1.77.77,0,0,1-.69-.28,1.41,1.41,0,0,1-.21-.84v-4.35a2.76,2.76,0,0,0-.21-1.25.84.84,0,0,0-.82-.39,2.45,2.45,0,0,0-.9.2,3.58,3.58,0,0,0-.91.58,3,3,0,0,0-.69.89v-1.69a5.11,5.11,0,0,1,1.35-1.12,3.43,3.43,0,0,1,1.7-.45,2,2,0,0,1,1.24.37,2.16,2.16,0,0,1,.71,1,4.29,4.29,0,0,1,.23,1.43Z"/><path class="cls-3" d="M178.6,107.72a3.87,3.87,0,0,0-.1-1,1.49,1.49,0,0,0-.43-.79,1.33,1.33,0,0,0-.93-.3,1.35,1.35,0,0,0-1.22.78,5,5,0,0,0-.44,2.36A4,4,0,0,0,176,111a1.6,1.6,0,0,0,1.38.71,2.28,2.28,0,0,0,1.08-.27,5.87,5.87,0,0,0,.93-.59,1.79,1.79,0,0,1,.72,1.05,4.48,4.48,0,0,1-1.33.91,4,4,0,0,1-1.66.35,3,3,0,0,1-1.52-.36,2.85,2.85,0,0,1-1-1,4.42,4.42,0,0,1-.6-1.4,7.09,7.09,0,0,1-.2-1.68,6.47,6.47,0,0,1,.29-2,3.93,3.93,0,0,1,.78-1.4,3.31,3.31,0,0,1,1.12-.8,3.27,3.27,0,0,1,1.27-.25,3.38,3.38,0,0,1,1.32.23,2.78,2.78,0,0,1,.93.61,2.65,2.65,0,0,1,.56.83,2.49,2.49,0,0,1,.18.9,1.15,1.15,0,0,1-.2.71.78.78,0,0,1-.66.27A3.88,3.88,0,0,1,178.6,107.72Z"/><path class="cls-3" d="M182.23,109.24V108h4v-.22a3.48,3.48,0,0,0-.17-1.1,1.67,1.67,0,0,0-.52-.8,1.45,1.45,0,0,0-1-.3,1.36,1.36,0,0,0-1.26.73,4.12,4.12,0,0,0-.42,2v.54a5.85,5.85,0,0,0,.16,1.45,2,2,0,0,0,.57,1,1.7,1.7,0,0,0,1.17.38,3.68,3.68,0,0,0,1.2-.19,6.39,6.39,0,0,0,1.1-.47,1.55,1.55,0,0,1,.36.53,2,2,0,0,1,.18.6,4.43,4.43,0,0,1-1.41.7,5.38,5.38,0,0,1-1.69.27,3.4,3.4,0,0,1-1.64-.37,2.68,2.68,0,0,1-1-1,4.25,4.25,0,0,1-.55-1.42,7.48,7.48,0,0,1-.17-1.66,6.27,6.27,0,0,1,.38-2.28,3.57,3.57,0,0,1,1.15-1.59,3.08,3.08,0,0,1,1.91-.58,3.16,3.16,0,0,1,1.81.49,3,3,0,0,1,1.1,1.31,4.38,4.38,0,0,1,.37,1.84c0,.28,0,.51,0,.71s-.05.41-.09.65Z"/><polygon class="cls-2" points="57.61 78.11 18.07 78.11 18.07 76.42 59.78 76.42 57.61 78.11"/><polygon class="cls-2" points="24.82 108.63 0 108.63 0 106.94 26.19 106.94 24.82 108.63"/><polygon class="cls-2" points="202.94 78.2 163.25 78.22 161.09 76.4 202.94 76.4 202.94 78.2"/><polygon class="cls-2" points="216.13 108.89 191.22 108.91 189.86 107.08 216.13 107.08 216.13 108.89"/></g></g></svg>